<svg width="18" height="18" viewBox="0 0 300 300" fill="none" xmlns="http://www.w3.org/2000/svg">
<rect width="300" height="300" fill="#F5F5F5"/>
<rect width="300" height="300" fill="white"/>
<path d="M44.3245 47.7054C42.8245 40.7054 46.8157 32.0835 50.3245 28.7054C53.8334 25.3273 77.3587 14.0988 92.3245 17.7054C96.1211 18.6203 94.3246 25.7054 100.325 23.7054C106.325 21.7054 181.715 17.8927 193.325 17.7054C204.934 17.5181 224.621 18.8703 233.325 23.7054C242.028 28.5405 249.035 31.3079 252.325 40.7054C255.825 50.7054 255.325 55.2054 252.325 68.2054C250.966 74.0922 229.538 86.7112 228.325 83.2054C227.111 79.6996 227.298 77.2706 228.325 73.7054C229.344 70.165 231.64 68.9817 233.325 65.7054C235.98 60.5425 238.921 55.898 236.325 50.7054C233.325 44.7054 232.286 42.3256 227.325 41.7054C219.325 40.7054 213.325 40.7054 213.325 40.7054C213.325 40.7054 194.825 40.623 193.325 40.7054C177.106 41.5958 166.158 39.1924 152.325 47.7054C145.825 51.7054 136.325 123.205 137.325 126.705L161.325 135.705C171.932 139.843 177.706 142.598 188.325 146.705C200.451 151.396 205.06 163.063 211.325 160.705C225.414 155.403 240.325 151.205 240.325 151.205C240.325 151.205 251.214 146.843 254.825 151.205C257.812 154.816 257.325 157.705 254.825 163.205C252.325 168.705 221.958 176.616 221.325 181.705C220.691 186.795 222.339 189.731 221.325 194.705C219.464 203.833 214.01 207.326 208.325 214.705C198.042 228.05 191.243 235.214 177.325 244.705C158.329 257.658 122.325 265.705 122.325 265.705V280.705C122.325 283.205 115.151 282.657 111.325 280.705C108.117 279.07 108.833 274.515 105.325 273.705C98.8246 272.205 91.8094 276.836 85.3246 273.705C78.8397 270.575 75.0643 266.693 73.3245 259.705C71.8968 253.971 73.3245 249.205 73.3245 249.205C73.3245 236.205 100.325 226.705 102.825 219.705C105.325 212.705 105.276 152.113 105.325 146.705C105.373 141.297 77.3246 146.705 75.8245 143.705C74.9301 141.917 70.4283 138.176 75.8245 131.205C81.2208 124.234 92.3245 122.205 92.3245 122.205C92.3245 122.205 103.111 121.937 105.325 119.705C107.538 117.474 117.825 47.7054 117.825 47.7054C117.825 47.7054 56.8896 56.823 55.3245 56.7054C53.7595 56.5878 45.8245 54.7054 44.3245 47.7054Z" fill="black" stroke="black"/>
<path d="M129.07 204.686C127.28 205.771 128.596 159.889 134.293 156.156C139.991 152.423 154.587 156.587 166.581 160.823C176.581 164.354 189.823 171.063 190.321 173.888C190.82 176.714 130.86 203.602 129.07 204.686Z" fill="white" stroke="black"/>
<path d="M196.117 191.431C200.366 185.288 138.046 220.099 135.685 222.147C133.325 224.195 133.325 226.652 133.325 226.652C133.325 226.652 136.495 226.772 138.518 226.652C149.297 226.012 149.377 224.604 163.54 216.413C177.704 208.223 182.425 205.356 186.674 202.489C190.923 199.622 191.868 197.574 196.117 191.431Z" fill="white" stroke="black"/>
</svg>
